<svg width="22" height="16" viewBox="0 0 22 16" fill="none" xmlns="http://www.w3.org/2000/svg">
<g id="&#240;&#159;&#166;&#134; icon &#34;arrow right 1&#34;">
<g id="Group">
<path id="Vector" d="M13.8242 15.9223C13.6034 15.9223 13.3827 15.841 13.2084 15.6667C12.8715 15.3298 12.8715 14.7721 13.2084 14.4351L19.645 7.99856L13.2084 1.56201C12.8715 1.22507 12.8715 0.667391 13.2084 0.330458C13.5454 -0.00647443 14.103 -0.00647443 14.44 0.330458L21.4923 7.38279C21.8293 7.71972 21.8293 8.2774 21.4923 8.61434L14.44 15.6667C14.2657 15.841 14.0449 15.9223 13.8242 15.9223Z" fill="white"/>
<path id="Vector_2" d="M20.6801 8.86983H1.12635C0.649999 8.86983 0.254974 8.47481 0.254974 7.99845C0.254974 7.5221 0.649999 7.12708 1.12635 7.12708H20.6801C21.1564 7.12708 21.5515 7.5221 21.5515 7.99845C21.5515 8.47481 21.1564 8.86983 20.6801 8.86983Z" fill="white"/>
</g>
</g>
</svg>
